<svg width="28" height="28" viewBox="0 0 28 28" fill="none" xmlns="http://www.w3.org/2000/svg">
  <path fill-rule="evenodd" clip-rule="evenodd" d="M6.98728 23.5228C7.95529 23.5228 8.74299 24.3276 8.74299 25.3184C8.74299 26.3091 7.95529 27.1153 6.98728 27.1153C6.01926 27.1153 5.23291 26.3091 5.23291 25.3184C5.23291 24.3276 6.01926 23.5228 6.98728 23.5228ZM22.2807 23.5228C23.2501 23.5228 24.0378 24.3276 24.0378 25.3184C24.0378 26.3091 23.2501 27.1153 22.2807 27.1153C21.3127 27.1153 20.5264 26.3091 20.5264 25.3184C20.5264 24.3276 21.3127 23.5228 22.2807 23.5228ZM1.19029 0.0131644L4.01028 0.512708C4.46446 0.594577 4.81018 0.980336 4.8495 1.45213L5.16811 5.33885L6.35284 5.33937C6.54617 5.33946 6.73745 5.33955 6.9267 5.33964L9.10176 5.34069C9.27514 5.34078 9.44658 5.34087 9.61609 5.34096L12.0177 5.34231C12.1686 5.3424 12.3176 5.34249 12.4649 5.34258L14.1479 5.34368C14.2812 5.34377 14.4128 5.34386 14.5428 5.34396L16.023 5.34507C16.1399 5.34517 16.2552 5.34526 16.3689 5.34536L17.6595 5.34649C17.761 5.34659 17.861 5.34668 17.9596 5.34678L18.8079 5.34764C18.8979 5.34774 18.9865 5.34783 19.0737 5.34793L20.0561 5.3491C20.1327 5.34919 20.208 5.34929 20.282 5.34939L21.1115 5.35058C21.1758 5.35068 21.2389 5.35077 21.3009 5.35087L21.828 5.35178C21.8832 5.35188 21.9374 5.35198 21.9905 5.35208L22.5777 5.35329C22.6226 5.3534 22.6665 5.3535 22.7094 5.3536L23.0708 5.35453C23.1082 5.35463 23.1448 5.35473 23.1804 5.35484L23.5678 5.35609C23.5969 5.35619 23.6251 5.3563 23.6526 5.3564L23.8801 5.35735C23.9032 5.35746 23.9256 5.35756 23.9474 5.35767L24.1775 5.35895C24.1942 5.35906 24.2104 5.35917 24.2259 5.35928L24.3513 5.36025C24.3637 5.36036 24.3756 5.36047 24.387 5.36058L24.4773 5.36156C24.486 5.36167 24.4943 5.36178 24.5022 5.36189L24.5637 5.36289C24.5694 5.363 24.5749 5.36311 24.5801 5.36322L24.6189 5.36423C24.6225 5.36434 24.6258 5.36445 24.6289 5.36457L24.657 5.36593C24.6588 5.36604 24.6604 5.36615 24.6618 5.36627C24.6751 5.36753 24.677 5.36776 24.6789 5.36799C25.4341 5.48039 26.0984 5.88419 26.5513 6.50584C27.0041 7.12611 27.1939 7.89069 27.0854 8.65665L25.7988 17.7567C25.5561 19.4884 24.0865 20.7942 22.3782 20.7942H7.57188C5.78634 20.7942 4.27466 19.3677 4.12959 17.543L2.88771 2.42624L0.844568 2.06545C0.290059 1.96555 -0.0800647 1.42854 0.0148389 0.861C0.112454 0.293464 0.647982 -0.0756433 1.19029 0.0131644ZM6.08085 7.42076L5.33893 7.42028L6.15646 17.3723C6.21611 18.1383 6.82757 18.7127 7.57459 18.7127H22.3755C23.0819 18.7127 23.6852 18.1743 23.7855 17.4597L25.0735 8.35831C25.1033 8.14184 25.0504 7.92538 24.9216 7.75054C24.7942 7.57431 24.6071 7.46052 24.3956 7.43C24.3858 7.43038 24.3624 7.43073 24.326 7.43105L24.1785 7.43191C24.1477 7.43204 24.1138 7.43216 24.0769 7.43227L23.3088 7.43347C23.244 7.43352 23.1766 7.43356 23.1068 7.43359L21.3009 7.43352C21.2001 7.43348 21.0975 7.43343 20.993 7.43339L18.9321 7.4321C18.8086 7.43201 18.6838 7.43192 18.5577 7.43182L17.3915 7.43086C17.2587 7.43075 17.1249 7.43063 16.9901 7.43051L15.7549 7.4294C15.6154 7.42928 15.4753 7.42914 15.3345 7.42901L14.4837 7.42821C14.3409 7.42808 14.1977 7.42794 14.0542 7.42781L12.7558 7.42656C12.611 7.42642 12.4661 7.42629 12.3213 7.42615L11.4527 7.42532C11.3082 7.42518 11.1638 7.42505 11.0197 7.42491L10.1585 7.42411C10.0156 7.42398 9.87324 7.42385 9.73133 7.42372L8.46978 7.42261C8.33159 7.42249 8.19415 7.42238 8.05754 7.42226L6.46326 7.42102C6.3346 7.42093 6.20711 7.42084 6.08085 7.42076ZM20.198 10.4679C20.7593 10.4679 21.2148 10.9342 21.2148 11.5086C21.2148 12.0831 20.7593 12.5493 20.198 12.5493H16.4398C15.8772 12.5493 15.423 12.0831 15.423 11.5086C15.423 10.9342 15.8772 10.4679 16.4398 10.4679H20.198Z" fill="white" fill-opacity="0.8" />
</svg>