<svg width="24" height="28" viewBox="0 0 24 28" fill="none" xmlns="http://www.w3.org/2000/svg">
  <path fill-rule="evenodd" clip-rule="evenodd" d="M9.23723 24.0961C9.89052 24.8238 10.7292 25.2236 11.5994 25.2236H11.6007C12.4747 25.2236 13.3172 24.8238 13.9717 24.0949C14.3223 23.7077 14.9201 23.6761 15.3073 24.0255C15.6957 24.3748 15.7273 24.9739 15.3779 25.3611C14.3589 26.4924 13.0183 27.1154 11.6007 27.1154H11.5982C10.1844 27.1141 8.84627 26.4911 7.83102 25.3598C7.48167 24.9726 7.5132 24.3736 7.90164 24.0255C8.29008 23.6749 8.88789 23.7064 9.23723 24.0961ZM11.6622 0C17.2682 0 21.0341 4.36621 21.0341 8.4436C21.0341 10.5409 21.5675 11.4301 22.1338 12.3734C22.6938 13.3042 23.3281 14.3611 23.3281 16.3588C22.888 21.4628 17.5595 21.879 11.6622 21.879C5.76495 21.879 0.435202 21.4628 7.77286e-05 16.4395C-0.00368897 14.3611 0.630685 13.3042 1.19065 12.3734L1.38833 12.0407C1.87506 11.2041 2.2904 10.2942 2.2904 8.4436C2.2904 4.36621 6.05628 0 11.6622 0ZM11.6622 1.89177C7.2544 1.89177 4.18217 5.34488 4.18217 8.4436C4.18217 11.0656 3.45447 12.2776 2.81127 13.3471C2.29544 14.2059 1.88808 14.8845 1.88808 16.3588C2.0987 18.7374 3.66887 19.9872 11.6622 19.9872C19.6115 19.9872 21.2308 18.6819 21.4402 16.2768C21.4364 14.8845 21.029 14.2059 20.5132 13.3471C19.87 12.2776 19.1423 11.0656 19.1423 8.4436C19.1423 5.34488 16.0701 1.89177 11.6622 1.89177Z" fill="white" fill-opacity="0.8" />
</svg>