<svg width="30" height="30" viewBox="0 0 30 30" fill="none" xmlns="http://www.w3.org/2000/svg">
  <path fill-rule="evenodd" clip-rule="evenodd" d="M20.558 0.29895C21.1737 0.29895 21.6734 0.752157 21.6734 1.31057L21.674 2.45412C23.8455 2.58915 25.6489 3.26374 26.9253 4.4238C28.3188 5.69305 29.052 7.51802 29.0446 9.70716V22.0125C29.0446 26.5068 25.8977 29.2989 20.8338 29.2989H8.25535C3.19153 29.2989 0.0446777 26.4677 0.0446777 21.91V9.70447C0.0446777 5.46536 2.85105 2.7443 7.42802 2.45459L7.42893 1.31057C7.42893 0.752157 7.92862 0.29895 8.54431 0.29895C9.16 0.29895 9.65969 0.752157 9.65969 1.31057L9.65924 2.42875H19.4419L19.4426 1.31057C19.4426 0.752157 19.9423 0.29895 20.558 0.29895ZM26.8138 12.3089H2.27543V21.91C2.27543 25.3711 4.39912 27.2757 8.25535 27.2757H20.8338C24.6901 27.2757 26.8138 25.4062 26.8138 22.0125L26.8138 12.3089ZM21.1643 20.7962C21.78 20.7962 22.2797 21.2494 22.2797 21.8078C22.2797 22.3662 21.78 22.8194 21.1643 22.8194C20.5486 22.8194 20.043 22.3662 20.043 21.8078C20.043 21.2494 20.5352 20.7962 21.1509 20.7962H21.1643ZM14.565 20.7962C15.1807 20.7962 15.6804 21.2494 15.6804 21.8078C15.6804 22.3662 15.1807 22.8194 14.565 22.8194C13.9493 22.8194 13.4436 22.3662 13.4436 21.8078C13.4436 21.2494 13.9359 20.7962 14.5516 20.7962H14.565ZM7.95182 20.7962C8.56751 20.7962 9.0672 21.2494 9.0672 21.8078C9.0672 22.3662 8.56751 22.8194 7.95182 22.8194C7.33613 22.8194 6.829 22.3662 6.829 21.8078C6.829 21.2494 7.32275 20.7962 7.93843 20.7962H7.95182ZM21.1643 15.5537C21.78 15.5537 22.2797 16.0069 22.2797 16.5653C22.2797 17.1237 21.78 17.5769 21.1643 17.5769C20.5486 17.5769 20.043 17.1237 20.043 16.5653C20.043 16.0069 20.5352 15.5537 21.1509 15.5537H21.1643ZM14.565 15.5537C15.1807 15.5537 15.6804 16.0069 15.6804 16.5653C15.6804 17.1237 15.1807 17.5769 14.565 17.5769C13.9493 17.5769 13.4436 17.1237 13.4436 16.5653C13.4436 16.0069 13.9359 15.5537 14.5516 15.5537H14.565ZM7.95182 15.5537C8.56751 15.5537 9.0672 16.0069 9.0672 16.5653C9.0672 17.1237 8.56751 17.5769 7.95182 17.5769C7.33613 17.5769 6.829 17.1237 6.829 16.5653C6.829 16.0069 7.32275 15.5537 7.93843 15.5537H7.95182ZM19.4419 4.45199H9.65924L9.65969 5.74957C9.65969 6.30798 9.16 6.76119 8.54431 6.76119C7.92862 6.76119 7.42893 6.30798 7.42893 5.74957L7.42814 4.48262C4.09653 4.73645 2.27543 6.56811 2.27543 9.70447V10.2857H26.8138L26.8138 9.70447C26.8197 8.03866 26.326 6.74379 25.3459 5.85356C24.4856 5.07098 23.228 4.6036 21.6746 4.48326L21.6734 5.74957C21.6734 6.30798 21.1737 6.76119 20.558 6.76119C19.9423 6.76119 19.4426 6.30798 19.4426 5.74957L19.4419 4.45199Z" fill="white" fill-opacity="0.8" />
</svg>