<svg width="31" height="31" viewBox="0 0 22 27" fill="none" xmlns="http://www.w3.org/2000/svg">
  <path fill-rule="evenodd" clip-rule="evenodd" d="M14.9539 0.334351C19.2697 0.334351 21.7457 2.47062 21.7457 6.19223V24.6871C21.7457 25.4632 21.3461 26.1617 20.6744 26.5523C20.0051 26.9442 19.1984 26.9518 18.5215 26.5701L10.9384 22.2861L3.2852 26.579C2.95439 26.7648 2.59177 26.859 2.22788 26.859C1.85254 26.859 1.47719 26.7584 1.13621 26.5574C0.465679 26.1668 0.0661621 25.4683 0.0661621 24.6934V5.95939C0.0661621 2.3841 2.54342 0.334351 6.86303 0.334351H14.9539ZM14.9539 2.24287H6.86303C3.61982 2.24287 1.97468 3.49231 1.97468 5.95939V24.6934C1.97468 24.813 2.04339 24.8779 2.10064 24.911C2.1579 24.9466 2.24824 24.9721 2.35257 24.9135L10.4727 20.3585C10.7628 20.1969 11.1178 20.1957 11.4091 20.3598L19.4593 24.9072C19.5649 24.9682 19.6552 24.9403 19.7125 24.9059C19.7697 24.8715 19.8371 24.8067 19.8371 24.6871L19.8367 6.04724C19.8271 4.95217 19.6152 2.24287 14.9539 2.24287ZM15.5122 8.89533C16.0389 8.89533 16.4664 9.32284 16.4664 9.84959C16.4664 10.3763 16.0389 10.8039 15.5122 10.8039H6.20116C5.67441 10.8039 5.2469 10.3763 5.2469 9.84959C5.2469 9.32284 5.67441 8.89533 6.20116 8.89533H15.5122Z" fill="white" fill-opacity="0.8" />
</svg>