<svg width="31" height="31" viewBox="0 0 31 31" fill="none" xmlns="http://www.w3.org/2000/svg">
  <path fill-rule="evenodd" clip-rule="evenodd" d="M17.7184 20.601C19.5391 20.601 21.021 22.0035 21.021 23.7276V28.1617C21.021 28.5321 21.3325 28.8291 21.7318 28.8377H24.614C26.8853 28.8377 28.7317 27.0993 28.7317 24.963V12.3872C28.7211 11.6521 28.3537 10.9601 27.7231 10.5003L17.7532 2.92086C16.4149 1.91036 14.5428 1.91036 13.2 2.92374L3.2981 10.4974C2.64332 10.9717 2.27585 11.6636 2.26829 12.4117V24.963C2.26829 27.0993 4.11468 28.8377 6.386 28.8377H9.29546C9.70527 28.8377 10.038 28.5278 10.038 28.1473C10.038 28.0636 10.0485 27.98 10.0667 27.9008V23.7276C10.0667 22.0136 11.5396 20.6125 13.3466 20.601H17.7184ZM24.614 31H21.7045C20.0381 30.9625 18.7527 29.7156 18.7527 28.1617V23.7276C18.7527 23.1957 18.2885 22.7632 17.7184 22.7632H13.3542C12.7962 22.7661 12.335 23.2 12.335 23.7276V28.1473C12.335 28.2554 12.3199 28.3592 12.2881 28.4572C12.1248 29.8843 10.8455 31 9.29546 31H6.386C2.8641 31 0 28.2914 0 24.963V12.4017C0.015122 10.9688 0.707707 9.65703 1.90385 8.79356L11.786 1.23285C13.9621 -0.410469 16.994 -0.410469 19.1656 1.22997L29.1188 8.79789C30.2878 9.64694 30.9803 10.9558 31 12.3714V24.963C31 28.2914 28.1359 31 24.614 31Z" fill="white" fill-opacity="0.8" />
</svg>