<svg width="17" height="15" viewBox="0 0 16 14" fill="none" xmlns="http://www.w3.org/2000/svg"><path d="M11.5888 0.125488H4.4139C2.4317 0.125488 0.819138 1.73853 0.819138 3.72131V10.2872C0.819138 12.27 2.4317 13.883 4.4139 13.883H11.5888C13.571 13.883 15.1836 12.27 15.1836 10.2872V3.72131C15.1836 1.73853 13.571 0.125488 11.5888 0.125488ZM2.08726 3.72131C2.08726 2.43819 3.13116 1.39397 4.4139 1.39397H11.5888C12.8715 1.39397 13.9154 2.43819 13.9154 3.72131V10.2872C13.9154 11.5703 12.8715 12.6146 11.5888 12.6146H4.4139C3.13116 12.6146 2.08726 11.5703 2.08726 10.2872V3.72131Z" fill="#DADADA"></path><path d="M8.00077 10.3481C9.84405 10.3481 11.3445 8.84804 11.3445 7.00341C11.3445 5.15877 9.84486 3.65869 8.00077 3.65869C6.15668 3.65869 4.65703 5.15877 4.65703 7.00341C4.65703 8.84804 6.15668 10.3481 8.00077 10.3481ZM8.00077 4.92799C9.1454 4.92799 10.0764 5.85925 10.0764 7.00422C10.0764 8.14919 9.1454 9.08045 8.00077 9.08045C6.85613 9.08045 5.92515 8.14919 5.92515 7.00422C5.92515 5.85925 6.85613 4.92799 8.00077 4.92799Z" fill="#DADADA"></path><path d="M11.654 4.19886C12.1504 4.19886 12.555 3.795 12.555 3.29768C12.555 2.80036 12.1512 2.39648 11.654 2.39648C11.1569 2.39648 10.7531 2.80036 10.7531 3.29768C10.7531 3.795 11.1569 4.19886 11.654 4.19886Z" fill="#DADADA"></path></svg>