<svg width="30" height="30" viewBox="0 0 19 19" fill="none" xmlns="http://www.w3.org/2000/svg">
  <path fill-rule="evenodd" clip-rule="evenodd" d="M9.13122 0C14.1661 0 18.2615 4.00508 18.2615 8.9289C18.2615 11.2519 17.3499 13.3707 15.8581 14.9608L18.7935 17.8254C19.0682 18.0941 19.0691 18.5287 18.7944 18.7974C18.6575 18.9331 18.4766 19 18.2966 19C18.1175 19 17.9375 18.9331 17.7996 18.7992L14.8288 15.902C13.2661 17.126 11.2846 17.8587 9.13122 17.8587C4.09635 17.8587 0 13.8527 0 8.9289C0 4.00508 4.09635 0 9.13122 0ZM9.13122 1.37537C4.87173 1.37537 1.40639 4.76336 1.40639 8.9289C1.40639 13.0944 4.87173 16.4833 9.13122 16.4833C13.3898 16.4833 16.8551 13.0944 16.8551 8.9289C16.8551 4.76336 13.3898 1.37537 9.13122 1.37537Z" fill="white" fill-opacity="0.8" />
</svg>