<svg width="31" height="31" viewBox="0 0 23 23" fill="none" xmlns="http://www.w3.org/2000/svg">
  <path fill-rule="evenodd" clip-rule="evenodd" d="M11.531 0.338989C14.5207 0.338989 16.9905 2.49215 17.295 5.24598L17.3799 5.24693C19.0384 5.24693 21.0549 6.28802 21.7355 9.20804L22.6379 15.8103C22.9616 17.9411 22.5567 19.6503 21.4324 20.8763C20.3138 22.0957 18.5432 22.7411 16.3116 22.7411H6.7633C4.31216 22.7411 2.60448 22.1736 1.5419 21.0071C0.474749 19.8373 0.117887 18.0827 0.481612 15.793L1.36919 9.27831C1.95252 6.29126 4.08569 5.24693 5.73732 5.24693C5.87991 4.00419 6.47277 2.82193 7.41332 1.93576C8.4942 0.920616 9.98455 0.338989 11.5069 0.338989H11.531ZM17.3799 6.86856H5.73732C5.23291 6.86856 3.54697 7.061 3.06314 9.53021L2.18014 16.0168C1.89305 17.8362 2.11494 19.153 2.84125 19.9498C3.5584 20.7368 4.84174 21.1195 6.7633 21.1195H16.3116C17.5103 21.1195 19.1471 20.8936 20.1353 19.8146C20.92 18.9595 21.1899 17.686 20.9383 16.0286L20.0473 9.48588C19.6675 7.87398 18.6656 6.86856 17.3799 6.86856ZM14.8668 9.87843C15.3403 9.87843 15.751 10.2417 15.751 10.6892C15.751 11.1368 15.393 11.5001 14.9194 11.5001H14.8668C14.3933 11.5001 14.009 11.1368 14.009 10.6892C14.009 10.2417 14.3933 9.87843 14.8668 9.87843ZM8.19841 9.87843C8.67194 9.87843 9.08256 10.2417 9.08256 10.6892C9.08256 11.1368 8.72341 11.5001 8.24988 11.5001H8.19841C7.72488 11.5001 7.34057 11.1368 7.34057 10.6892C7.34057 10.2417 7.72488 9.87843 8.19841 9.87843ZM11.5275 1.96063H11.5104C10.4341 1.96063 9.38521 2.37036 8.62459 3.08496C8.005 3.66796 7.59977 4.43437 7.46869 5.24642L15.5659 5.24673C15.272 3.38916 13.5725 1.96063 11.5275 1.96063Z" fill="white" fill-opacity="0.8" />
</svg>