<svg width="30" height="30" viewBox="0 0 30 30" fill="none" xmlns="http://www.w3.org/2000/svg">
  <path fill-rule="evenodd" clip-rule="evenodd" d="M11.6404 6.17275C12.2553 6.64537 12.6089 7.35014 12.6089 8.10634C12.6089 14.2018 12.8191 15.8421 13.6782 16.4662C14.242 16.8735 15.0146 16.8694 17.6176 16.7985C18.8275 16.7637 20.3769 16.7192 22.4062 16.7192C23.2157 16.7192 23.9783 17.0584 24.4952 17.6492C24.9752 18.1983 25.1854 18.9156 25.0746 19.6217C24.126 25.6338 18.9 30 12.6487 30C5.71288 30 0.0708008 24.4772 0.0708008 17.6895C0.0708008 12.3071 4.22887 6.92478 9.33982 5.69317C10.1379 5.50273 10.9957 5.68066 11.6404 6.17275ZM9.98597 7.70183C9.94053 7.70183 9.89509 7.70739 9.84964 7.71851C5.63193 8.73465 2.20096 13.2079 2.20096 17.6895C2.20096 23.3277 6.8873 27.9149 12.6487 27.9149C17.842 27.9149 22.1818 24.2938 22.9686 19.3034C22.9743 19.2617 22.9941 19.1407 22.8777 19.0059C22.7669 18.8794 22.5908 18.8043 22.4062 18.8043C20.4024 18.8043 18.873 18.8488 17.6787 18.8822C14.7873 18.967 13.5916 18.999 12.4101 18.1413C10.7206 16.9161 10.4985 14.8565 10.4801 9.07667L10.4787 8.10634C10.4787 7.98957 10.4276 7.89227 10.3254 7.81442C10.2302 7.74075 10.1095 7.70183 9.98597 7.70183ZM25.7043 4.12975C28.2008 6.57211 29.7856 9.7818 29.7402 12.3076C29.7232 13.2931 28.9918 14.116 28.0034 14.262C26.0749 14.547 23.8169 14.6332 21.8189 14.6332C19.9585 14.6332 18.3211 14.5595 17.3796 14.5067C16.1952 14.4385 15.2523 13.5141 15.1841 12.3548C15.0734 10.5171 14.8334 5.84789 15.0038 2.23647C15.0506 1.18697 15.9169 0.351533 16.9763 0.333462C20.0111 0.247277 23.1424 1.62623 25.7043 4.12975ZM17.1581 2.41718H17.1268C16.9706 5.91878 17.2021 10.4421 17.31 12.2339C17.3157 12.3409 17.3952 12.4188 17.5032 12.4243C18.963 12.5063 23.993 12.7343 27.6101 12.213C27.6186 10.2614 26.2538 7.61467 24.199 5.60462C22.0915 3.54453 19.5978 2.41718 17.1581 2.41718Z" fill="white" fill-opacity="0.8" />
</svg>