<svg width="14" height="14" viewBox="0 0 12 14" fill="none" xmlns="http://www.w3.org/2000/svg"><path d="M11.6053 3.81119V6.00118C11.2226 5.9638 10.7254 5.87685 10.1755 5.67532C9.45733 5.41203 8.92279 5.05205 8.57266 4.77333V9.19964L8.56372 9.18581C8.56941 9.27357 8.57266 9.36296 8.57266 9.45316C8.57266 11.6513 6.78462 13.4407 4.58633 13.4407C2.38804 13.4407 0.600006 11.6513 0.600006 9.45316C0.600006 7.25504 2.38804 5.46486 4.58633 5.46486C4.80161 5.46486 5.01283 5.48192 5.21917 5.51524V7.67354C5.02095 7.60285 4.80811 7.56465 4.58633 7.56465C3.54568 7.56465 2.69837 8.41139 2.69837 9.45316C2.69837 10.4949 3.54568 11.3417 4.58633 11.3417C5.62698 11.3417 6.47429 10.4941 6.47429 9.45316C6.47429 9.41416 6.47348 9.37516 6.47104 9.33615V0.734619H8.65877C8.66689 0.919895 8.6742 1.10681 8.68233 1.29208C8.69695 1.65695 8.82693 2.00719 9.05358 2.29404C9.31923 2.63128 9.7116 3.02294 10.2624 3.3358C10.7783 3.62753 11.2624 3.75349 11.6053 3.81281V3.81119Z" fill="#DADADA"></path></svg>