 <svg width="20" height="26" viewBox="0 0 20 26" fill="none" xmlns="http://www.w3.org/2000/svg">
  <path d="M1.68116 1.28384C2.86926 3.4524 5.70945 3.90228 6.85683 5.8402L2.79299 10.8387L2.50793 9.22419C1.11709 7.21035 2.00693 3.12899 1.68116 1.28384Z" fill="url(#paint0_linear_1_284)" />
  <path d="M18.3687 1.28384C17.1806 3.4524 14.3404 3.90228 13.193 5.8402L17.2569 10.8387L17.5419 9.22419C18.9328 7.21035 18.0429 3.12899 18.3687 1.28384Z" fill="url(#paint1_linear_1_284)" />
  <path d="M3.43194 8.03543L5.03259 6.60551L5.85772 5.79454L5.42875 6.09337L5.50319 5.80534L4.60443 5.88034L4.89335 5.4429L4.67087 5.28299L4.94298 5.25089C5.00252 5.02046 3.58859 4.59361 2.87419 4.40899L3.21191 4.80353C3.01407 4.7524 2.37611 5.20206 2.08186 5.43328L2.66688 5.89173L2.31234 5.90252L3.11185 6.21156L2.70769 6.41438L3.28471 6.56349L2.91336 6.97963L3.29271 6.87282L3.04459 7.83291L3.61362 7.6727L3.43194 8.03543Z" fill="white" />
  <path d="M16.4733 8.03543L14.8726 6.60551L14.0475 5.79454L14.4765 6.09337L14.402 5.80534L15.3008 5.88034L15.0119 5.4429L15.2343 5.28299L14.9622 5.25089C14.9027 5.02046 16.3166 4.59361 17.031 4.40899L16.6933 4.80353C16.8911 4.7524 17.5291 5.20206 17.8234 5.43328L17.2383 5.89173L17.5929 5.90252L16.7934 6.21156L17.1975 6.41438L16.6205 6.56349L16.9919 6.97963L16.6125 6.87282L16.8606 7.83291L16.2916 7.6727L16.4733 8.03543Z" fill="white" />
  <path d="M14.1207 16.8741V12.6743C14.1207 12.0987 14.0086 11.5573 13.7842 11.05C13.5696 10.5329 13.272 10.0842 12.8915 9.70371C12.5111 9.32325 12.0623 9.0257 11.5453 8.81108C11.038 8.5867 10.4965 8.47451 9.92095 8.47451C9.34537 8.47451 8.79906 8.5867 8.28201 8.81108C7.77472 9.0257 7.33084 9.32325 6.95037 9.70371C6.5699 10.0842 6.26748 10.5329 6.0431 11.05C5.82848 11.5573 5.72117 12.0987 5.72117 12.6743V16.8741H14.1207ZM18.3205 25.259H14.1207V21.0592H5.72117V25.259H1.53601V12.6743C1.53601 11.5134 1.75551 10.4256 2.19451 9.41105C2.63352 8.38671 3.22861 7.49407 3.97979 6.73313C4.74073 5.97219 5.62849 5.37223 6.64307 4.93322C7.66741 4.49422 8.76004 4.27472 9.92095 4.27472C11.0819 4.27472 12.1696 4.49422 13.1842 4.93322C14.2085 5.37223 15.1012 5.97219 15.8621 6.73313C16.6231 7.49407 17.223 8.38671 17.662 9.41105C18.101 10.4256 18.3205 11.5134 18.3205 12.6743V25.259Z" fill="url(#paint2_linear_1_284)" />
  <defs>
    <linearGradient id="paint0_linear_1_284" x1="6.00985" y1="16.2336" x2="3.1438" y2="0.000765489" gradientUnits="userSpaceOnUse">
      <stop stop-color="#FF85B6" />
      <stop offset="1" stop-color="#F43B86" />
    </linearGradient>
    <linearGradient id="paint1_linear_1_284" x1="14.04" y1="16.2336" x2="16.9061" y2="0.000765489" gradientUnits="userSpaceOnUse">
      <stop stop-color="#FF85B6" />
      <stop offset="1" stop-color="#F43B86" />
    </linearGradient>
    <linearGradient id="paint2_linear_1_284" x1="10.0402" y1="38.0911" x2="10.0402" y2="2.06929" gradientUnits="userSpaceOnUse">
      <stop stop-color="#FF85B6" />
      <stop offset="1" stop-color="#F43B86" />
    </linearGradient>
  </defs>
</svg>