<svg width="33" height="25" viewBox="0 0 33 25" fill="none" xmlns="http://www.w3.org/2000/svg">
  <path fill-rule="evenodd" clip-rule="evenodd" d="M16.2776 15.4134L16.4412 15.4135L16.807 15.4147C19.6033 15.4331 25.9936 15.7156 25.9936 20.0469C25.9936 24.3498 19.8261 24.6304 16.8506 24.6487L15.7482 24.6487C12.9518 24.6303 6.5602 24.3482 6.5602 20.0223C6.5602 15.714 12.9518 15.433 15.7482 15.4147L16.1141 15.4135C16.1708 15.4134 16.2254 15.4134 16.2776 15.4134ZM16.2776 17.5861C12.8362 17.5861 8.73283 18.009 8.73283 20.0223C8.73283 21.99 12.5913 22.4501 15.9631 22.4762L16.2776 22.4774C19.7191 22.4774 23.821 22.0559 23.821 20.0469C23.821 18.0133 19.7191 17.5861 16.2776 17.5861ZM27.7978 14.8257C31.3073 15.3514 32.0446 16.9997 32.0446 18.2903C32.0446 19.0782 31.7346 20.5165 29.6634 21.3059C29.5359 21.3537 29.4055 21.3769 29.2766 21.3769C28.8392 21.3769 28.4264 21.1104 28.2613 20.6773C28.0469 20.1167 28.3294 19.4881 28.8899 19.2752C29.8719 18.9015 29.8719 18.4887 29.8719 18.2903C29.8719 17.6559 29.0652 17.2127 27.4748 16.9751C26.8824 16.8853 26.4725 16.3335 26.5608 15.7382C26.6492 15.1443 27.1996 14.7489 27.7978 14.8257ZM5.993 15.7382C6.08135 16.3335 5.67145 16.8853 5.07904 16.9751C3.48868 17.2127 2.68191 17.6559 2.68191 18.2903C2.68191 18.4887 2.68191 18.9001 3.66538 19.2752C4.22592 19.4881 4.50836 20.1167 4.294 20.6773C4.12888 21.1104 3.71608 21.3769 3.27866 21.3769C3.14975 21.3769 3.01939 21.3537 2.89193 21.3059C0.819239 20.5151 0.509277 19.0768 0.509277 18.2903C0.509277 17.0012 1.24652 15.3514 4.75749 14.8257C5.35569 14.7503 5.90319 15.1443 5.993 15.7382ZM16.2776 0.32959C19.9277 0.32959 22.8955 3.29885 22.8955 6.94742C22.8955 10.596 19.9277 13.5652 16.2776 13.5652H16.2385C14.4715 13.5595 12.8159 12.8671 11.5761 11.6157C10.3333 10.3657 9.65402 8.7058 9.66121 6.94307C9.66121 3.29885 12.6291 0.32959 16.2776 0.32959ZM16.2776 2.50222C13.8269 2.50222 11.8339 4.49669 11.8339 6.94742C11.8295 8.13512 12.2844 9.24606 13.1172 10.0847C13.95 10.9233 15.0595 11.3883 16.2414 11.3926L16.2776 12.4789V11.3926C18.7284 11.3926 20.7228 9.39959 20.7228 6.94742C20.7228 4.49669 18.7284 2.50222 16.2776 2.50222ZM25.2419 1.74832C27.7882 2.16691 29.6379 4.34533 29.6379 6.92787C29.6321 9.52778 27.6897 11.7583 25.1188 12.119C25.0681 12.1262 25.0174 12.1291 24.9682 12.1291C24.4351 12.1291 23.9702 11.7366 23.8934 11.1935C23.8109 10.5982 24.2237 10.0492 24.819 9.96665C26.3253 9.75518 27.4623 8.44871 27.4652 6.92497C27.4652 5.41427 26.3818 4.13676 24.8885 3.89198C24.2975 3.79493 23.8963 3.23584 23.9934 2.64344C24.0919 2.05104 24.6466 1.65417 25.2419 1.74832ZM8.56191 2.64344C8.65896 3.23584 8.25774 3.79493 7.66679 3.89198C6.17347 4.13676 5.09005 5.41427 5.09005 6.92787C5.09295 8.44871 6.22996 9.75663 7.73486 9.96665C8.33017 10.0492 8.74296 10.5982 8.66041 11.1935C8.58364 11.7366 8.1187 12.1291 7.58568 12.1291C7.53643 12.1291 7.48574 12.1262 7.43504 12.119C4.8641 11.7583 2.92321 9.52778 2.91742 6.93076C2.91742 4.34533 4.76705 2.16691 7.31337 1.74832C7.92316 1.65272 8.46342 2.05393 8.56191 2.64344Z" fill="white" fill-opacity="0.8" />
</svg>