<svg width="16" height="16" viewBox="0 0 16 16" fill="none" xmlns="http://www.w3.org/2000/svg"><path d="M10.2605 11.4028C7.29286 11.4028 4.87848 8.98692 4.87767 6.01844C4.87848 5.26595 5.49102 4.65405 6.24165 4.65405C6.31883 4.65405 6.39518 4.66055 6.4683 4.67355C6.62915 4.70037 6.78188 4.75482 6.92242 4.83689C6.94273 4.84908 6.95654 4.8686 6.95979 4.89135L7.27336 6.86843C7.27743 6.89199 7.27012 6.91475 7.25468 6.93181C7.08164 7.12359 6.86068 7.26175 6.61453 7.33082L6.49592 7.36413L6.5406 7.4787C6.94516 8.5091 7.76892 9.33228 8.79982 9.73859L8.91437 9.7841L8.94767 9.66546C9.01672 9.41924 9.15483 9.19819 9.34655 9.02511C9.36036 9.01211 9.37904 9.00561 9.39773 9.00561C9.40179 9.00561 9.40585 9.00561 9.41073 9.00642L11.3872 9.3201C11.4108 9.32416 11.4303 9.33716 11.4425 9.35747C11.5237 9.49806 11.5781 9.65163 11.6058 9.81253C11.6188 9.88404 11.6244 9.95961 11.6244 10.0384C11.6244 10.7901 11.0127 11.402 10.2605 11.4028Z" fill="white"></path><path d="M15.523 7.35916C15.363 5.55028 14.5343 3.87224 13.1899 2.63463C11.8372 1.3897 10.0825 0.703857 8.24736 0.703857C4.2196 0.703857 0.942487 3.98194 0.942487 8.01088C0.942487 9.36307 1.31536 10.6803 2.02131 11.8277L0.44693 15.3139L5.48772 14.7767C6.36427 15.1359 7.292 15.3179 8.24654 15.3179C8.49757 15.3179 8.7551 15.3049 9.01343 15.2781C9.2409 15.2537 9.4708 15.218 9.69664 15.1725C13.0696 14.4907 15.5319 11.4962 15.5514 8.04988V8.01088C15.5514 7.79147 15.5417 7.57207 15.5222 7.35997L15.523 7.35916ZM5.68188 13.2465L2.893 13.544L3.72568 11.6985L3.55914 11.4751C3.54696 11.4588 3.53477 11.4425 3.52096 11.4239C2.79795 10.4252 2.41613 9.24524 2.41613 8.01169C2.41613 4.79536 5.03198 2.17874 8.24736 2.17874C11.2596 2.17874 13.8129 4.52965 14.0591 7.53063C14.0721 7.69153 14.0794 7.85323 14.0794 8.01251C14.0794 8.05801 14.0786 8.1027 14.0778 8.15065C14.016 10.8412 12.137 13.1263 9.50816 13.7081C9.30751 13.7528 9.10198 13.787 8.89726 13.8089C8.68441 13.8333 8.46589 13.8455 8.24898 13.8455C7.47641 13.8455 6.72578 13.6959 6.01658 13.4001C5.93778 13.3685 5.8606 13.3343 5.7883 13.2994L5.68269 13.2482L5.68188 13.2465Z" fill="white"></path></svg>